<?xml version="1.0" ?><!DOCTYPE svg  PUBLIC '-//W3C//DTD SVG 1.1//EN'  'http://www.w3.org/Graphics/SVG/1.1/DTD/svg11.dtd'><svg enable-background="new 0 0 512 512" height="512px" id="Layer_1" version="1.1" viewBox="0 0 512 512" width="512px" xml:space="preserve" xmlns="http://www.w3.org/2000/svg" xmlns:xlink="http://www.w3.org/1999/xlink"><g><path d="M508.667,257.59c0,140.443-113.852,254.288-254.288,254.288c-140.437,0-254.288-113.845-254.288-254.288   C0.092,117.151,113.943,3.302,254.38,3.302C394.816,3.302,508.667,117.151,508.667,257.59z" fill="#004972"/><g><linearGradient gradientUnits="userSpaceOnUse" id="SVGID_1_" x1="148.6367" x2="347.5132" y1="158.6108" y2="158.6108"><stop offset="0" style="stop-color:#FFFFFF"/><stop offset="1" style="stop-color:#D9DBDC"/></linearGradient><path d="M347.513,158.607c0,54.922-44.513,99.442-99.435,99.442    c-54.915,0-99.442-44.52-99.442-99.442c0-54.915,44.527-99.435,99.442-99.435C303,59.173,347.513,103.693,347.513,158.607z" fill="url(#SVGID_1_)" stroke="#DFE0E1"/><path d="M262.206,105.9c-1.718-0.2-3.656-0.007-5.346,0.09c-0.283,5.511,0.11,11.161-0.173,16.679    c-3.925,1.09-8.001-1.855-11.237-0.476c-3.669,1.573-3.242,10.913,0.566,10.851c-2.842,0.862-5.808,0.531-8.74,0.6    c-0.876,6.574,3.746,11.865,7.505,16.893c4.187,5.622,5.532,7.105,12.479,6.243c0.124-3.173,0.014-13.327,5.829-8.664    c1.849,1.483,0.4,7.291,2.959,9.409c2.193,1.807,8.112,2.194,10.789,2.097c1.731-6.05,3.552-12.037-3.67-13.589    c-0.124-2.097-0.897-5.781,0.545-7.416c0.876-1,3.622,0.655,4.739-0.58c1.235-1.352,0.373-3.297,0.6-4.967    c0.469-3.477,0.518-8.884-2.028-11.567c-1.104-1.166-3.435-0.849-4.877-2.276c-6.905-6.857,1.745-9.857,0.386-15.921    c-1.055-4.711-9.871-4.249-8.781,1.973c-0.883-0.089-1.379,0.504-2.09,0.621" fill="#DDDFE0"/><path d="M281.768,142.853c-0.524,0.089-1.021-0.055-1.552,0.069c-0.966,4.519,2.821,7.063,6.905,6.374    c0.09-0.966,0.262-2.139-0.014-3.091c-0.731-1.503-2.973-3.276-4.801-3.352" fill="#DDDFE0"/><path d="M243.733,192.842c3.194,6.305,0.641,12.52-6.471,13.127c-0.427,5.732-2.387,12.844-8.74,14.596    c-3.028,0.835-5.008,0.235-7.836,1.601c-4.346,2.09-6.794,4.532-12.071,3.739c-2.291-7.884,6.567-6.256,11.685-6.519    c0.621-2.311,0.814-4.987,0.704-7.429c2.29-0.979,5.374,0.338,7.505-0.642c4.001-1.835,1.793-4.835,2.725-8.726    c1.621-6.739,12.258-4.897,11.955-9.202" fill="#DDDFE0"/><path d="M219.817,190.131c-1.352,2.904-3.628,10.092,2.097,9.691c0-5.146,5.256-8.478,10.319-8.146    c1.2-4.56-2.332-6.622-6.353-6.359c-0.193,0.51,0.007,0.958-0.159,1.469c-1.959,0.697-3.628,1.076-5.822,1.249    c-0.097,0.8-0.235,1.821-0.083,2.635" fill="#DDDFE0"/><path d="M233.406,67.864c4.484,1.269,3.366,8.36,0.11,10.395c-2.062,1.276-6.367,0.477-8.781,0.477    c-8.126,0-12.589,0.104-10.423,9.685c-4.788,2.352-12.603-0.352-15.162,4.704c-3.828,7.561,7.657,10.865-3.78,13.32    c-2.829,0.607-7.016-0.083-8.34,3.697c-1.042,2.987,2.104,4.87,2.945,7.712c3.242,10.975-11.382,11.32-18.976,12.023    c-0.29,5.622-0.394,11.092-0.697,16.672c-3.187,1.249-7.747,3.656-6.912,7.65c6.401,2.159,7.76,15.748,7.533,21.253    c-0.248,6.249-5.201,9.774-2.069,16.265c7.119,1.131,8.499,9.264,14.513,9.395c-6.691,2.387-11.237-1.814-16.334-5.932    c-6.449-5.215-7.057-11.12-9.947-17.638c-3.38-7.65-0.731-16.728-0.303-24.909c0.414-7.767,2.249-12.092,5.463-19.411    c2.732-6.222,3.008-11.458,7.588-16.452c1.669-1.835,5.188-2.4,6.408-4.456c1.262-2.131-0.717-5.726,0.483-8.057    c1-1.938,4.201-2.587,5.76-3.925c2.125-1.814,2.497-3.339,4.16-5.201c2.573-2.891,3.828-3.96,5.463-7.705    c2.959-6.746,8.45-10.499,15.583-13.065c5.477-1.98,10.002-3.394,15.92-3.656c3.166-0.145,9.016,0.883,10.34-1.759" fill="#DDDFE0"/><path d="M201.345,145.025c-2.511,0.6-7.464,11.582-7.671,14.658c-0.469,7.119,17.362,5.718,22.971,7.588    c-0.166,2.021-0.566,3.966-0.538,5.953c9.009,0.897,12.099-1.91,12.423-10.257c0.365-9.65-8.898-15.99-18.335-15.852    c-0.58-2.607,0.096-7.43,1.71-9.623c2.628-3.58,7.774-2.766,10.396-6.139c5.815-7.45-5.415-15.452-12.299-11.885    c-7.636,3.953,2.559,22.915-10.202,21.839c-0.021,1.621,0.317,3.525,0.462,3.718" fill="#EDEDEE"/><g><path d="M266.993,117.454c0,0,0.938,12.837-0.697,13.775c-1.635,0.932-5.601-0.938-9.809-4.435     c-4.201-3.504-27.075-28.248-28.475-34.552c0,0-22.405,14.941-43.182,12.609c0,0,20.998,2.159,25.909,8.167     c2.097,2.566,6.07,5.367,3.504,20.542c0,0,10.968-2.801,15.169,0c4.201,2.8,10.037,6.298,10.037,13.071     c0,0,9.809-12.609,15.175-4.67s1.635,38.05,1.635,38.05l17.507-24.978c0,0,5.836-9.34,12.134-6.07     c6.305,3.27,7.47,12.837,7.47,12.837s5.367-8.167,12.141-7.933c6.76,0.234,16.334,7.236,16.334,7.236s2.808-12.14,13.079-13.072     c10.264-0.938,25.205,2.566,25.205,2.566s-25.439-21.474-29.647-33.38c0,0-14.472,16.107-32.441,18.211     c-17.976,2.097-18.438-1.407-18.438-1.407s-2.339-4.663,3.035-11.437c0,0-5.374,2.338-8.643,1.635     C270.731,123.524,266.993,117.454,266.993,117.454z" fill="#231F20"/><path d="M272.594,128.07c0,0.718-0.731,1.29-1.628,1.29c-0.903,0-1.635-0.572-1.635-1.29     c0-0.703,0.731-1.276,1.635-1.276C271.863,126.794,272.594,127.367,272.594,128.07z" fill="#F48C80"/><path d="M276.795,128.774c0,0.71-0.725,1.283-1.628,1.283c-0.904,0-1.635-0.573-1.635-1.283     c0-0.711,0.731-1.283,1.635-1.283C276.07,127.491,276.795,128.063,276.795,128.774z" fill="#F48C80"/></g><g><path d="M181.485,168.147c0,0,3.711,4.111,3.4,4.856c-0.303,0.752-2.152,1.166-4.497,1.09     c-2.359-0.083-16.666-2.435-18.804-4.201c0,0-3.663,10.989-11.333,15.693c0,0,7.705-4.821,10.961-4.077     c1.394,0.317,3.477,0.221,6.615,6.049c0,0,2.987-3.849,5.153-4.008c2.166-0.165,5.077-0.517,6.863,1.78     c0,0-0.007-6.871,3.918-5.595c3.918,1.276,10.609,12.485,10.609,12.485l-0.655-13.106c0,0-0.483-4.711,2.518-5.27     c3.001-0.552,5.926,2.387,5.926,2.387s-0.331-4.194,2.028-5.898c2.359-1.717,7.464-1.869,7.464-1.869s-2.263-4.856,0.979-7.891     c3.242-3.028,9.243-5.788,9.243-5.788s-14.32-0.572-18.887-3.504c0,0-0.662,9.299-6.208,14.762     c-5.546,5.463-6.636,4.401-6.636,4.401s-2.028-0.972-1.986-4.69c0,0-1.214,2.214-2.504,2.842     C184.355,169.216,181.485,168.147,181.485,168.147z" fill="#231F20"/><path d="M186.197,170.272c0.179,0.241,0.083,0.628-0.221,0.869c-0.303,0.234-0.704,0.234-0.89-0.007     s-0.09-0.628,0.214-0.869C185.604,170.031,186.003,170.031,186.197,170.272z" fill="#F48C80"/><path d="M187.811,169.396c0.18,0.241,0.083,0.635-0.221,0.869c-0.303,0.241-0.704,0.234-0.896-0.007     c-0.187-0.234-0.09-0.628,0.221-0.862C187.217,169.155,187.618,169.155,187.811,169.396z" fill="#F48C80"/></g></g><path d="M254.38,334.075c-85.301,0-163.986,14.079-227.199,37.808c41.85,83.031,127.868,139.995,227.199,139.995   s185.349-56.964,227.199-139.995C418.373,348.154,339.681,334.075,254.38,334.075z" fill="#231F20"/><path d="M117.203,304.279v-20.032h11.651v-5.167h-11.651v-10.043h-5.16v10.043h-11.658v5.167h11.658v20.073   c-12.113,1.366-21.521,11.637-21.521,24.115v30.469h48.548v-30.469C139.069,315.84,129.481,305.487,117.203,304.279z" fill="#231F20"/><path d="M392.35,320.172v-20.032h11.651v-5.167H392.35V284.93h-5.167v10.044H375.54v5.167h11.644v20.073   c-12.106,1.366-21.522,11.637-21.522,24.115v30.468h48.555v-30.468C414.217,331.733,404.622,321.379,392.35,320.172z" fill="#231F20"/><path d="M265.393,304.279v-20.032h11.65v-5.167h-11.65v-10.043h-5.167v10.043h-11.644v5.167h11.644v20.073   c-12.106,1.366-21.522,11.637-21.522,24.115v30.469h48.555v-30.469C287.259,315.84,277.664,305.487,265.393,304.279z" fill="#231F20"/></g></svg>